<svg xmlns="http://www.w3.org/2000/svg" viewBox="0 0 200 200" role="img" aria-label="Rudi Macht Alles Monogramm">
  <defs>
    <style>
      @import url('https://fonts.googleapis.com/css2?family=Fraunces:ital,opsz,wght@1,144,500&amp;display=swap');
      .mono-r { font-family: 'Fraunces', 'EB Garamond', Georgia, serif; font-style: italic; font-weight: 500; font-variation-settings: "opsz" 144, "SOFT" 100; fill: #F4EFE3; }
    </style>
  </defs>

  <circle cx="100" cy="100" r="98" fill="#1E3026"/>

  <text x="100" y="146" text-anchor="middle" class="mono-r" font-size="148">R</text>

  <g stroke="#4A7C5D" stroke-width="1.4" fill="none" stroke-linecap="round" stroke-linejoin="round" opacity="0.85">
    <path d="M 60 168 Q 80 174 100 174 Q 120 174 140 168"/>
    <path d="M 78 168 Q 76 162 70 160"/>
    <path d="M 92 170 Q 90 164 84 162"/>
    <path d="M 108 170 Q 110 164 116 162"/>
    <path d="M 122 168 Q 124 162 130 160"/>
  </g>
  <g fill="#4A7C5D" stroke="none" opacity="0.85">
    <ellipse cx="72" cy="160" rx="5" ry="2" transform="rotate(-22 72 160)"/>
    <ellipse cx="86" cy="162" rx="5" ry="2" transform="rotate(-15 86 162)"/>
    <ellipse cx="114" cy="162" rx="5" ry="2" transform="rotate(15 114 162)"/>
    <ellipse cx="128" cy="160" rx="5" ry="2" transform="rotate(22 128 160)"/>
  </g>

  <circle cx="100" cy="40" r="2.2" fill="#B8623A"/>
</svg>
